<?xml version="1.0" encoding="UTF-8"?>
<svg width="26px" height="26px" viewBox="0 0 26 26" version="1.1" xmlns="http://www.w3.org/2000/svg" xmlns:xlink="http://www.w3.org/1999/xlink">
    <!-- Generator: Sketch 48.2 (47327) - http://www.bohemiancoding.com/sketch -->
    <title>00-Foundation/icon_Global</title>
    <desc>Created with Sketch.</desc>
    <defs>
        <path d="M15.774,21.599 C16.581,20.624 17.263,19.562 17.794,18.432 L20.201,18.432 C19.08,19.916 17.545,21.038 15.774,21.599 Z M6.18,18.432 L8.674,18.432 C9.209,19.574 9.899,20.646 10.717,21.628 C8.901,21.08 7.323,19.948 6.18,18.432 Z M10.717,3.622 C9.877,4.631 9.169,5.733 8.628,6.909 L6.115,6.909 C7.263,5.349 8.865,4.181 10.717,3.622 Z M20.265,6.909 L17.839,6.909 C17.304,5.745 16.603,4.653 15.774,3.652 C17.58,4.223 19.139,5.38 20.265,6.909 Z M19.085,12 C19.022,10.685 18.774,9.394 18.341,8.159 L21.052,8.159 C21.65,9.313 22.013,10.617 22.1,12 L19.085,12 Z M13.815,17.182 L13.815,13.25 L17.835,13.25 C17.763,14.601 17.464,15.925 16.964,17.182 L13.815,17.182 Z M13.815,18.432 L16.389,18.432 C15.726,19.698 14.86,20.868 13.815,21.889 L13.815,18.432 Z M12.565,18.432 L12.565,21.798 C11.56,20.798 10.723,19.661 10.078,18.432 L12.565,18.432 Z M8.632,13.25 L12.565,13.25 L12.565,17.182 L9.503,17.182 C9.003,15.925 8.704,14.601 8.632,13.25 Z M12.565,8.159 L12.565,12 L8.632,12 C8.703,10.681 8.989,9.389 9.467,8.159 L12.565,8.159 Z M12.565,6.909 L10.031,6.909 C10.682,5.645 11.535,4.476 12.565,3.452 L12.565,6.909 Z M17,8.159 C17.479,9.389 17.765,10.681 17.835,12 L13.815,12 L13.815,8.159 L17,8.159 Z M13.815,6.909 L13.815,3.362 C14.885,4.407 15.767,5.609 16.436,6.909 L13.815,6.909 Z M5.328,8.159 L8.127,8.159 C7.694,9.394 7.445,10.685 7.382,12 L4.28,12 C4.367,10.617 4.73,9.313 5.328,8.159 Z M4.28,13.25 L7.382,13.25 C7.447,14.597 7.71,15.919 8.162,17.182 L5.38,17.182 C4.754,16.005 4.37,14.67 4.28,13.25 Z M21.001,17.182 L18.305,17.182 C18.757,15.919 19.02,14.597 19.085,13.25 L22.1,13.25 C22.01,14.67 21.627,16.005 21.001,17.182 Z M13.19,2 C7.556,2 3,6.763 3,12.625 C3,18.487 7.556,23.25 13.19,23.25 C18.825,23.25 23.38,18.487 23.38,12.625 C23.38,6.763 18.825,2 13.19,2 Z" id="path-1"></path>
    </defs>
    <g id="Symbols" stroke="none" stroke-width="1" fill="none" fill-rule="evenodd">
        <g id="00-Foundation/icon_Global">
            <mask id="mask-2" fill="white">
                <use xlink:href="#path-1"></use>
            </mask>
            <use id="Mask" fill="#000000" xlink:href="#path-1"></use>
        </g>
    </g>
</svg>