<?xml version="1.0" encoding="UTF-8"?>
<svg width="26px" height="26px" viewBox="0 0 26 26" version="1.1" xmlns="http://www.w3.org/2000/svg" xmlns:xlink="http://www.w3.org/1999/xlink">
    <!-- Generator: Sketch 48.2 (47327) - http://www.bohemiancoding.com/sketch -->
    <title>00-Foundation/icon_Search</title>
    <desc>Created with Sketch.</desc>
    <defs>
        <path d="M4.46448889,16.7165556 C2.82745185,15.0795185 1.92611852,12.9022593 1.92611852,10.5872963 C1.92611852,8.27233333 2.82745185,6.09603704 4.46448889,4.459 C6.15448889,2.76996296 8.37411852,1.92544444 10.5937481,1.92544444 C12.8124148,1.92544444 15.0320444,2.76996296 16.7210815,4.459 C20.1001185,7.83803704 20.1001185,13.3365556 16.7210815,16.7165556 C13.3430074,20.0936667 7.84448889,20.0946296 4.46448889,16.7165556 Z M25.9857481,24.6186296 L18.7288593,17.3627037 C22.1955259,13.2046296 21.9836741,6.99640741 18.0827111,3.09737037 C13.952563,-1.03277778 7.23300741,-1.03181481 3.10285926,3.09737037 C1.10182222,5.09744444 0.000192592593,7.75714815 0.000192592593,10.5872963 C0.000192592593,13.4164815 1.10182222,16.0771481 3.10285926,18.0781852 C5.16841481,20.1437407 7.88108148,21.1750741 10.5937481,21.1750741 C13.0040444,21.1750741 15.4124148,20.3555926 17.3672296,18.7243333 L24.6241185,25.9802593 L25.9857481,24.6186296 Z" id="path-1"></path>
    </defs>
    <g id="Symbols" stroke="none" stroke-width="1" fill="none" fill-rule="evenodd">
        <g id="00-Foundation/icon_Search">
            <mask id="mask-2" fill="white">
                <use xlink:href="#path-1"></use>
            </mask>
            <use id="Mask" fill="#F50F10" xlink:href="#path-1"></use>
        </g>
    </g>
</svg>